<?xml version="1.0" standalone="no"?>
<!DOCTYPE svg PUBLIC "-//W3C//DTD SVG 20010904//EN"
 "http://www.w3.org/TR/2001/REC-SVG-20010904/DTD/svg10.dtd">
<svg version="1.0" xmlns="http://www.w3.org/2000/svg"
 width="350.000000pt" height="328.000000pt" viewBox="0 0 350.000000 328.000000"
 preserveAspectRatio="xMidYMid meet">

<g transform="translate(0.000000,328.000000) scale(0.100000,-0.100000)"
fill="rgba(0, 0, 0, 0.95)" stroke="none">
<path d="M2953 2768 c1 -14 6 -23 12 -20 6 3 4 -2 -3 -11 -8 -9 -10 -22 -6
-29 5 -7 9 -29 10 -48 2 -46 11 -84 31 -129 9 -20 17 -40 17 -44 1 -5 9 -14
19 -21 9 -7 17 -17 17 -22 0 -5 9 -16 20 -24 11 -8 20 -21 20 -29 0 -8 3 -12
6 -9 3 4 14 -2 24 -12 10 -10 38 -24 62 -31 24 -7 44 -14 46 -15 10 -6 -33
-67 -63 -90 -38 -29 -43 -47 -20 -70 8 -9 15 -12 15 -8 0 3 6 2 13 -3 6 -5 28
-10 47 -12 19 -1 48 -4 64 -5 38 -5 65 26 66 74 0 44 -53 165 -124 284 -54 90
-124 181 -133 172 -2 -2 -23 16 -45 40 -22 24 -43 42 -48 41 -4 -1 -17 9 -28
23 l-20 25 1 -27z"/>
<path d="M856 2322 c-48 -130 -72 -159 -64 -78 3 22 1 56 -4 74 -26 96 -59
-43 -42 -179 5 -36 -3 -78 -31 -180 -24 -86 -37 -153 -36 -186 l1 -51 -69 -16
c-39 -9 -74 -16 -78 -16 -4 0 -7 58 -5 130 2 71 -1 130 -5 130 -5 0 -21 -62
-37 -138 l-28 -139 -91 -21 c-51 -12 -95 -22 -98 -22 -4 0 -4 15 0 33 9 36 3
107 -9 107 -17 0 -40 -81 -50 -174 -11 -107 -15 -120 -35 -112 -17 6 -18 1
-45 -138 -16 -86 -18 -116 -10 -142 7 -21 16 -31 25 -28 10 4 13 -5 12 -38 -1
-33 10 -67 46 -143 152 -318 410 -582 723 -738 234 -118 426 -163 739 -173
519 -18 874 92 1222 379 169 139 339 365 422 560 19 44 19 48 3 43 -9 -2 -50
-8 -89 -11 l-73 -7 0 39 c0 49 -14 63 -61 63 -68 0 -87 14 -91 62 -3 37 -7 44
-33 53 -16 5 -33 14 -36 18 -4 5 -12 57 -19 115 -12 101 -21 132 -41 132 -5 0
-9 -7 -9 -15 0 -8 -7 -15 -15 -15 -9 0 -15 9 -15 23 0 12 -21 46 -45 76 l-45
54 -33 -72 c-18 -40 -38 -71 -46 -71 -8 0 -45 -10 -83 -22 -37 -12 -70 -20
-73 -17 -2 3 -7 37 -11 75 -5 55 -3 77 10 102 25 48 21 164 -8 227 l-23 50
-12 -28 c-6 -16 -11 -46 -11 -68 0 -27 -4 -39 -14 -39 -20 0 -34 133 -21 197
8 35 -10 72 -86 180 l-39 56 -28 -64 c-74 -166 -77 -177 -62 -212 7 -18 15
-63 16 -102 l3 -70 -23 48 c-27 54 -28 54 -47 -21 -10 -42 -11 -64 -1 -110 7
-32 12 -90 12 -129 0 -64 -2 -72 -21 -78 -11 -4 -22 -5 -23 -3 -2 1 -24 43
-50 91 -26 49 -49 87 -52 85 -2 -2 -19 -46 -39 -96 -27 -71 -34 -101 -29 -128
6 -32 4 -34 -20 -34 -31 0 -50 31 -43 70 4 16 0 35 -8 46 -13 18 -14 18 -24
-9 -6 -16 -11 -47 -11 -70 0 -68 -18 -23 -26 66 -6 70 -22 109 -32 79 -7 -23
-19 -12 -31 28 -14 46 -31 53 -32 13 0 -16 -4 -37 -8 -48 -6 -15 -14 -3 -39
61 -17 44 -36 102 -43 129 l-13 50 -7 -47 c-4 -25 -28 -92 -53 -148 -25 -56
-49 -119 -52 -140 -4 -22 -15 -47 -25 -56 -24 -22 -24 -51 0 -59 15 -5 19 -20
25 -107 4 -55 3 -104 -1 -109 -4 -4 -25 -11 -45 -14 l-38 -7 0 53 c0 36 6 59
18 72 12 15 14 21 5 24 -9 3 -13 26 -13 69 0 45 -6 73 -19 95 -13 21 -18 42
-14 63 2 17 0 42 -6 56 -9 24 -10 24 -10 3 -2 -43 -18 -23 -36 42 -9 36 -20
65 -24 65 -3 0 -20 -52 -36 -115 l-29 -115 -57 0 -56 0 -21 53 c-18 45 -22 49
-28 30 -4 -16 -14 -23 -30 -23 -22 0 -24 4 -26 58 -3 75 -2 100 11 212 l11 95
-70 275 c-39 151 -74 284 -78 294 -6 14 -20 -13 -56 -112z m1391 -444 c-3 -8
-6 -5 -6 6 -1 11 2 17 5 13 3 -3 4 -12 1 -19z m143 -28 c0 -5 -4 -10 -10 -10
-5 0 -10 5 -10 10 0 6 5 10 10 10 6 0 10 -4 10 -10z m-143 -22 c-3 -8 -6 -5
-6 6 -1 11 2 17 5 13 3 -3 4 -12 1 -19z m-1327 -48 c0 -5 -5 -10 -11 -10 -5 0
-7 5 -4 10 3 6 8 10 11 10 2 0 4 -4 4 -10z m-5 -49 c3 -5 1 -12 -5 -16 -5 -3
-10 1 -10 9 0 18 6 21 15 7z m-125 -21 c0 -5 -4 -10 -10 -10 -5 0 -10 5 -10
10 0 6 5 10 10 10 6 0 10 -4 10 -10z m180 6 c0 -3 -4 -8 -10 -11 -5 -3 -10 -1
-10 4 0 6 5 11 10 11 6 0 10 -2 10 -4z m-470 -55 c0 -6 -4 -13 -10 -16 -5 -3
-10 1 -10 9 0 9 5 16 10 16 6 0 10 -4 10 -9z m290 5 c0 -3 -4 -8 -10 -11 -5
-3 -10 -1 -10 4 0 6 5 11 10 11 6 0 10 -2 10 -4z m120 -6 c0 -5 -5 -10 -11
-10 -5 0 -7 5 -4 10 3 6 8 10 11 10 2 0 4 -4 4 -10z m1370 -36 c0 -8 -5 -12
-10 -9 -6 4 -8 11 -5 16 9 14 15 11 15 -7z m177 -6 c-3 -8 -6 -5 -6 6 -1 11 2
17 5 13 3 -3 4 -12 1 -19z m-240 -10 c-3 -8 -6 -5 -6 6 -1 11 2 17 5 13 3 -3
4 -12 1 -19z m-1317 2 c0 -5 -4 -10 -10 -10 -5 0 -10 5 -10 10 0 6 5 10 10 10
6 0 10 -4 10 -10z m-120 -10 c0 -5 -2 -10 -4 -10 -3 0 -8 5 -11 10 -3 6 -1 10
4 10 6 0 11 -4 11 -10z m1690 -50 c0 -5 -4 -10 -10 -10 -5 0 -10 5 -10 10 0 6
5 10 10 10 6 0 10 -4 10 -10z m-1583 -32 c-3 -8 -6 -5 -6 6 -1 11 2 17 5 13 3
-3 4 -12 1 -19z m903 -48 c0 -5 -4 -10 -10 -10 -5 0 -10 5 -10 10 0 6 5 10 10
10 6 0 10 -4 10 -10z m250 -15 c0 -8 -7 -15 -15 -15 -16 0 -20 12 -8 23 11 12
23 8 23 -8z m-250 -46 c0 -5 -4 -9 -10 -9 -5 0 -10 7 -10 16 0 8 5 12 10 9 6
-3 10 -10 10 -16z m560 1 c0 -11 -4 -20 -10 -20 -5 0 -10 9 -10 20 0 11 5 20
10 20 6 0 10 -9 10 -20z m-110 -11 c0 -5 -4 -9 -10 -9 -5 0 -10 7 -10 16 0 8
5 12 10 9 6 -3 10 -10 10 -16z m247 -46 c-3 -10 -5 -4 -5 12 0 17 2 24 5 18 2
-7 2 -21 0 -30z m-1537 -22 c0 -50 -11 -71 -36 -71 -22 0 -23 2 -17 48 7 57
20 77 39 61 8 -6 14 -23 14 -38z m-440 -6 c0 -34 -4 -45 -15 -45 -13 0 -15 7
-9 38 12 67 24 71 24 7z m-59 22 c-1 -4 -1 -23 -1 -42 0 -25 -4 -35 -16 -35
-11 0 -14 5 -10 16 3 9 6 29 6 46 0 17 5 28 11 26 6 -2 10 -7 10 -11z m1109
-2 c0 -8 -4 -15 -10 -15 -5 0 -10 7 -10 15 0 8 5 15 10 15 6 0 10 -7 10 -15z
m1240 -50 c0 -43 -1 -45 -30 -45 -29 0 -30 1 -30 49 0 52 12 65 43 49 12 -6
17 -21 17 -53z m-2474 -21 c-3 -8 -10 -14 -16 -14 -11 0 -4 64 9 85 8 13 14
-52 7 -71z m64 31 c0 -35 -4 -45 -16 -45 -12 0 -15 6 -10 23 3 12 6 32 6 45 0
12 5 22 10 22 6 0 10 -20 10 -45z m428 14 c5 -40 -14 -79 -39 -79 -20 0 -21 3
-14 48 4 26 9 51 12 55 10 17 38 1 41 -24z m566 10 c-3 -5 -10 -7 -15 -3 -5 3
-7 10 -3 15 3 5 10 7 15 3 5 -3 7 -10 3 -15z m-1112 -38 c-2 -23 -8 -41 -13
-41 -10 0 -12 73 -3 83 14 13 20 -3 16 -42z m1878 -1 c0 -27 -4 -50 -10 -50
-5 0 -10 23 -10 50 0 28 5 50 10 50 6 0 10 -22 10 -50z m-1928 -9 c-2 -23 -8
-41 -13 -41 -10 0 -12 73 -3 83 14 13 20 -3 16 -42z m1878 -12 c0 -27 -4 -49
-10 -49 -5 0 -10 25 -10 56 0 34 4 53 10 49 6 -3 10 -28 10 -56z m-1930 19 c0
-34 -15 -67 -25 -57 -8 9 6 89 16 89 5 0 9 -15 9 -32z m1840 -48 c0 -27 -4
-50 -10 -50 -5 0 -10 23 -10 50 0 28 5 50 10 50 6 0 10 -22 10 -50z m-390 31
c0 -6 -4 -13 -10 -16 -5 -3 -10 1 -10 9 0 9 5 16 10 16 6 0 10 -4 10 -9z m352
-78 c-2 -7 -8 -13 -13 -13 -11 0 -12 83 -1 94 8 9 20 -62 14 -81z m-412 62 c0
-8 -4 -15 -10 -15 -5 0 -10 7 -10 15 0 8 5 15 10 15 6 0 10 -7 10 -15z m756
-21 c-5 -13 -10 -14 -18 -6 -6 6 -8 18 -4 28 5 13 10 14 18 6 6 -6 8 -18 4
-28z m-66 7 c0 -6 -4 -13 -10 -16 -5 -3 -10 1 -10 9 0 9 5 16 10 16 6 0 10 -4
10 -9z m-514 -38 c-10 -10 -19 5 -10 18 6 11 8 11 12 0 2 -7 1 -15 -2 -18z
m-1239 -17 c-4 -9 -11 -16 -17 -16 -11 0 -14 33 -3 44 11 10 26 -11 20 -28z
m-59 7 c-5 -25 -28 -28 -28 -4 0 12 6 21 16 21 9 0 14 -7 12 -17z m822 7 c0
-5 -5 -10 -11 -10 -5 0 -7 5 -4 10 3 6 8 10 11 10 2 0 4 -4 4 -10z m60 6 c0
-3 -4 -8 -10 -11 -5 -3 -10 -1 -10 4 0 6 5 11 10 11 6 0 10 -2 10 -4z m80 -6
c0 -5 -4 -10 -10 -10 -5 0 -10 5 -10 10 0 6 5 10 10 10 6 0 10 -4 10 -10z
m-1030 -20 c0 -11 -4 -20 -10 -20 -5 0 -10 9 -10 20 0 11 5 20 10 20 6 0 10
-9 10 -20z m2140 5 c0 -8 -4 -15 -10 -15 -5 0 -10 7 -10 15 0 8 5 15 10 15 6
0 10 -7 10 -15z m-2258 -27 c-15 -15 -26 -4 -18 18 5 13 9 15 18 6 9 -9 9 -15
0 -24z m58 12 c0 -11 -4 -20 -10 -20 -5 0 -10 9 -10 20 0 11 5 20 10 20 6 0
10 -9 10 -20z m580 -10 c0 -20 -5 -30 -15 -30 -15 0 -21 40 -8 53 14 15 23 6
23 -23z m51 3 c-8 -29 -31 -44 -31 -20 0 26 11 47 25 47 9 0 11 -8 6 -27z
m-731 -3 c0 -19 -11 -26 -23 -14 -8 8 3 34 14 34 5 0 9 -9 9 -20z m1336 -7
c-10 -10 -19 5 -10 18 6 11 8 11 12 0 2 -7 1 -15 -2 -18z m614 -48 c0 -35 -4
-67 -10 -70 -6 -4 -10 22 -10 70 0 48 4 74 10 70 6 -3 10 -35 10 -70z m-50
-15 c0 -40 -4 -70 -10 -70 -6 0 -10 30 -10 70 0 40 4 70 10 70 6 0 10 -30 10
-70z m580 14 c0 -28 -4 -43 -10 -39 -5 3 -10 26 -10 51 0 28 4 43 10 39 6 -3
10 -26 10 -51z m-40 1 c0 -25 -4 -45 -10 -45 -5 0 -10 20 -10 45 0 25 5 45 10
45 6 0 10 -20 10 -45z m-1430 5 c15 -28 3 -63 -31 -96 l-29 -28 0 53 c0 81 34
120 60 71z m1530 -20 c0 -22 -16 -35 -25 -20 -9 14 4 52 16 45 5 -4 9 -15 9
-25z m-1320 1 c0 -6 -4 -13 -10 -16 -5 -3 -10 1 -10 9 0 9 5 16 10 16 6 0 10
-4 10 -9z m176 -18 c-10 -10 -19 5 -10 18 6 11 8 11 12 0 2 -7 1 -15 -2 -18z
m134 -28 c0 -8 -4 -15 -10 -15 -5 0 -10 7 -10 15 0 8 5 15 10 15 6 0 10 -7 10
-15z m-240 -322 c0 -118 -10 -183 -28 -183 -12 0 -14 17 -7 123 4 67 9 125 12
130 14 24 23 -2 23 -70z m70 -16 c0 -113 -10 -177 -28 -177 -13 0 -14 17 -9
121 4 66 10 125 13 130 14 23 24 -8 24 -74z m70 -21 c0 -118 -9 -176 -28 -176
-13 0 -14 17 -8 126 3 70 9 131 12 135 14 24 24 -10 24 -85z m70 11 c0 -115
-12 -197 -27 -197 -13 0 -14 19 -8 128 4 70 9 130 12 135 12 20 23 -11 23 -66z
m66 27 c7 -27 -3 -221 -12 -236 -3 -4 -10 -6 -15 -3 -10 7 -13 224 -3 249 9
24 23 19 30 -10z m-381 -153 c3 -5 1 -12 -5 -16 -5 -3 -10 1 -10 9 0 18 6 21
15 7z"/>
</g>
</svg>
